<?xml version="1.0" encoding="UTF-8"?>
<svg enable-background="new 0 0 500 500" viewBox="0 0 500 500" xml:space="preserve" xmlns="http://www.w3.org/2000/svg">
<style type="text/css">
	.st0{fill:#413684;}
	.st1{fill:#363958;}
	.st2{font-family:'OpenSans';}
	.st3{font-size:9.0862px;}
	.st4{fill:none;stroke:#F9AA1B;stroke-miterlimit:10;}
	.st5{fill:#F9AA1B;}
	.st6{fill:#EE404D;}
	.st7{fill:#189FB3;}
	.st8{fill:none;}
	.st9{fill:#DE2C3A;}
	.st10{fill:#6BC9D0;}
	.st11{fill:#F6912D;}
	.st12{font-family:'OpenSans-Light';}
	.st13{font-size:8.8169px;}
	.st14{font-family:'OpenSans-Semibold';}
	.st15{font-size:15.9313px;}
	.st16{font-size:8.8741px;}
</style>
<g>
	<g>
		<g>
			<polygon class="st0" points="331.5 89.1 293.7 89.1 293.7 142.7 296.4 142.7 296.4 91.8 331.5 91.8"/>
		</g>
		<g>
			<path class="st0" d="m327.8 90.1c0 3.5 2.9 6.3 6.5 6.3s6.5-2.8 6.5-6.3-2.9-6.3-6.5-6.3-6.5 2.9-6.5 6.3z"/>
		</g>
		<g>
			<path class="st0" d="m331 90.4c0 1.7 1.5 3.2 3.3 3.2s3.3-1.4 3.3-3.2c0-1.7-1.5-3.2-3.3-3.2-1.8 0.1-3.3 1.5-3.3 3.2z"/>
		</g>
	</g>
	<g>
		<text class="st1 st2 st3" transform="matrix(1.0378 0 0 1 315.9 104.88)">Lorem Ipsum </text>
	</g>
	<g>
		<polyline class="st4" points="196.6 348.3 196.6 400.6 233.1 400.6"/>
		<path class="st5" d="m229.4 400.9c0-3.5 2.9-6.3 6.5-6.3s6.5 2.8 6.5 6.3-2.9 6.3-6.5 6.3-6.5-2.8-6.5-6.3z"/>
		<path class="st5" d="m232.6 400.6c0-1.7 1.5-3.2 3.3-3.2s3.3 1.4 3.3 3.2c0 1.7-1.5 3.2-3.3 3.2-1.8-0.1-3.3-1.5-3.3-3.2z"/>
	</g>
	<g>
		<g>
			<polygon class="st6" points="433.8 282.1 433.8 245.6 378.2 245.6 378.2 248.3 431.1 248.3 431.1 282.1"/>
		</g>
		<g>
			<path class="st6" d="m432.8 278.5c-3.6 0-6.5 2.8-6.5 6.3s2.9 6.3 6.5 6.3 6.5-2.8 6.5-6.3-2.9-6.3-6.5-6.3z"/>
		</g>
		<g>
			<ellipse class="st6" cx="432.5" cy="284.8" rx="3.3" ry="3.1"/>
		</g>
	</g>
	<g>
		<g>
			<polygon class="st7" points="86.6 195.2 86.6 231.7 142.2 231.7 142.2 229 89.4 229 89.4 195.2"/>
		</g>
		<g>
			<path class="st7" d="m87.7 198.8c3.6 0 6.5-2.8 6.5-6.3s-2.9-6.3-6.5-6.3-6.5 2.8-6.5 6.3c-0.1 3.5 2.8 6.3 6.5 6.3z"/>
		</g>
		<g>
			<path class="st7" d="m88 195.7c1.8 0 3.3-1.4 3.3-3.1s-1.5-3.1-3.3-3.1-3.3 1.4-3.3 3.1 1.5 3.1 3.3 3.1z"/>
		</g>
	</g>
	<g>
		<path class="st8" d="m339.7 234.3c-5.8-35.4-37.6-62.6-76-62.6-17.1 0-32.8 5.4-45.6 14.4-19 13.5-31.4 35.2-31.4 59.7 0 12.4 3.2 24.1 8.8 34.4l1.2 2.1 1.5 2.4c13.6 21.1 37.8 35.2 65.5 35.2 24.7 0 46.6-11.2 60.6-28.6 0.8-1 1.7-2.1 2.4-3.2 0.4-0.6 0.8-1.1 1.2-1.7 8-11.7 12.7-25.7 12.7-40.7 0-3.7-0.3-7.6-0.9-11.4z"/>
		<path class="st9" d="m374.4 324.8c1.2-1.6 2.4-3.2 3.5-4.8-1.1 1.5-2.3 3.1-3.5 4.8z"/>
		<path class="st9" d="m326.8 288.3c-0.8 1.1-1.6 2.1-2.4 3.2 0.8-1 1.6-2.1 2.4-3.2z"/>
		<path class="st9" d="m399.8 226c0.3 1.8 0.5 3.7 0.7 5.6-0.2-1.8-0.4-3.7-0.7-5.6z"/>
		<path class="st10" d="m145.9 314.7l-1.5-2.4c0.6 0.8 1 1.6 1.5 2.4z"/>
		<path class="st10" d="m175.2 144.3c-0.4 0.3-0.8 0.7-1.2 1 0.4-0.3 0.8-0.6 1.2-1z"/>
		<path class="st9" d="m339.7 234.3c0.6 3.8 1 7.6 1 11.6 0 15.1-4.7 29-12.7 40.7 0.2-0.4 0.5-0.7 0.8-1.1l49.5 33.9c14.6-21.1 23.2-46.4 23.2-73.6 0-4.8-0.3-9.4-0.8-14.1l-60.7 3.7c-0.2-0.3-0.3-0.7-0.3-1.1z"/>
		<path class="st7" d="m195.6 280.4c-5.6-10.3-8.8-22-8.8-34.4 0-24.5 12.4-46.2 31.4-59.7-0.2 0.1-0.4 0.2-0.6 0.4l-44.3-40.7c-28.9 24.3-47.3 60.1-47.3 100 0 20.9 5.1 40.6 14 58.1l54.9-25c0.2 0.4 0.4 0.8 0.7 1.3z"/>
		<path class="st0" d="m218.1 186.2c12.8-9.1 28.5-14.4 45.6-14.4 38.4 0 70.2 27.1 76 62.6 0.1 0.4 0.1 0.8 0.2 1.2l60.7-3.7v-0.2c-0.2-1.9-0.5-3.7-0.7-5.6-10-63.8-67.1-112.8-136.1-112.8-33.7 0-64.5 11.7-88.5 31.1-0.4 0.3-0.8 0.6-1.2 1-0.2 0.2-0.5 0.4-0.8 0.6l44.3 40.6c0.1-0.2 0.3-0.3 0.5-0.4z"/>
		<path class="st11" d="m378.2 319.5l-49.5-33.9c-0.2 0.4-0.5 0.7-0.8 1.1-0.4 0.6-0.8 1.1-1.2 1.7-0.8 1.1-1.6 2.1-2.4 3.2-14.1 17.4-36 28.6-60.6 28.6-27.7 0-51.9-14.1-65.5-35.2l-1.5-2.4-1.2-2.1c-0.2-0.4-0.5-0.8-0.7-1.3l-54.9 25h-0.1c0.7 1.4 1.4 2.7 2.2 4.1 0.7 1.3 1.5 2.6 2.3 3.9 0 0.1 0.1 0.1 0.1 0.2l1.5 2.4c24.1 38.3 67.8 63.9 117.7 63.9 45.4 0 85.6-21.2 110.7-53.9 1.2-1.6 2.4-3.2 3.6-4.8 0.1-0.2 0.2-0.3 0.3-0.5z"/>
	</g>
	<g>
		<text transform="matrix(1.0378 0 0 1 209.59 247.61)"><tspan class="st1 st12 st13" x="0" y="0">dolor sit amet, cum nominavi </tspan><tspan class="st1 st12 st13" x="7.7" y="10.6">accusamus consequat id, </tspan><tspan class="st1 st12 st13" x="15.5" y="21.2">in harum vidisse pro, </tspan><tspan class="st1 st12 st13" x="8.2" y="31.7">nam in putent nonumes. </tspan></text>
	</g>
	<g>
		<text class="st1 st14 st15" transform="matrix(1.0378 0 0 1 211.19 229.3)">Lorem Ipsum </text>
	</g>
	<g>
		<text class="st1 st2 st16" transform="matrix(1.0378 0 0 1 200.33 426.24)">Lorem Ipsum </text>
	</g>
	<g>
		<text class="st1 st2 st16" transform="matrix(1.0378 0 0 1 406.03 306.75)">Lorem Ipsum </text>
	</g>
	<g>
		<text class="st1 st2 st16" transform="matrix(1.0378 0 0 1 64.353 173.52)">Lorem Ipsum </text>
	</g>
</g>
</svg>
