<svg xmlns="http://www.w3.org/2000/svg" xmlns:xlink="http://www.w3.org/1999/xlink" viewBox="0 0 923.73 889.02"><defs><linearGradient id="linear-gradient" x1="236.23" y1="642.75" x2="861.23" y2="17.75" gradientUnits="userSpaceOnUse"><stop offset="0" stop-color="#f0c"/><stop offset="1" stop-color="#339"/></linearGradient><clipPath id="clip-path" transform="translate(173.73 80.25)"><rect x="18.01" y="14.01" width="656.66" height="387.33" fill="none"/></clipPath><linearGradient id="linear-gradient-2" x1="98.59" y1="149.67" x2="350.25" y2="149.67" xlink:href="#linear-gradient"/><linearGradient id="linear-gradient-3" x1="456.42" y1="211.73" x2="712.36" y2="211.73" xlink:href="#linear-gradient"/><linearGradient id="linear-gradient-4" x1="457.11" y1="211.96" x2="695.93" y2="211.96" xlink:href="#linear-gradient"/><linearGradient id="linear-gradient-5" x1="490.57" y1="290.34" x2="637.26" y2="290.34" xlink:href="#linear-gradient"/><linearGradient id="linear-gradient-6" x1="461.39" y1="226.48" x2="655.51" y2="226.48" xlink:href="#linear-gradient"/><linearGradient id="linear-gradient-7" x1="238.47" y1="218.18" x2="433.4" y2="218.18" xlink:href="#linear-gradient"/><linearGradient id="linear-gradient-8" x1="233.41" y1="218.5" x2="427.43" y2="218.5" xlink:href="#linear-gradient"/><linearGradient id="linear-gradient-9" x1="228.06" y1="218.83" x2="421.46" y2="218.83" xlink:href="#linear-gradient"/><linearGradient id="linear-gradient-10" x1="222.88" y1="219.15" x2="415.49" y2="219.15" xlink:href="#linear-gradient"/><linearGradient id="linear-gradient-11" x1="217.55" y1="219.47" x2="415.61" y2="219.47" xlink:href="#linear-gradient"/><linearGradient id="linear-gradient-12" x1="212.09" y1="219.8" x2="419.46" y2="219.8" xlink:href="#linear-gradient"/><linearGradient id="linear-gradient-13" x1="127.47" y1="274.41" x2="199.44" y2="274.41" xlink:href="#linear-gradient"/></defs><title>svg</title><g style="isolation:isolate"><g id="BACKGROUND"><rect x="173.73" y="80.25" width="750" height="500" fill="url(#linear-gradient)"/></g><g id="OBJECTS"><rect y="522.33" width="619.85" height="366.69" fill="#fff"/><path d="M405.32,34.94C401.6,70.3,425.18,105,418.61,140c-7.25,38.6-46.76,60.54-79.85,81.71-40.46,25.9-78.58,60.71-91.93,106.86A126.69,126.69,0,0,0,242,366.69H663.33V0H418.43A78.15,78.15,0,0,0,405.32,34.94Z" transform="translate(173.73 80.25)" fill="none"/><g clip-path="url(#clip-path)"><path d="M350.25-80.25c-27,8.56-43.75,36.52-48.56,64.39s-.1,56.37,2.36,84.54,2.35,57.95-11,82.91c-10.64,20-28.8,34.93-48.1,46.73s-40.12,21-59.48,32.68c-24.43,14.77-46.64,33.78-62.65,57.41s-25.55,52.12-24.14,80.64c30.85,9.49,60.79,12.84,92.84,9-2.42-31.2-3.54-63.74,4.25-94s24.07-59.25,49.37-77.66c22.42-16.3,50.65-23.65,71.9-41.45a92.91,92.91,0,0,0,32.81-69.29c.21-20.14-6.18-39.69-12.44-58.84S324.93-2,325.4-22.15,333-69.86,350.25-80.25Z" transform="translate(173.73 80.25)" opacity="0.55" fill="url(#linear-gradient-2)" style="mix-blend-mode:multiply"/><path d="M480.52,362.33c24.38,19.61,60,20.91,89.07,9.34s52.44-34.21,71.7-58.87a355,355,0,0,0,63.35-128c8.42-32.12,12.09-67.06-.18-97.92s-50-46.49-82.83-41.58c11.61,28.44,2.43,61.92-15.47,86.88S562.74,175.4,538,193.59s-49.75,37.41-66,63.5-22,60.82-6.72,87.46" transform="translate(173.73 80.25)" opacity="0.55" fill="url(#linear-gradient-3)" style="mix-blend-mode:multiply"/><path d="M597.94,44.62a121.6,121.6,0,0,1-28.28,156.69c-19.14,15.43-42.42,24.66-63.54,37.24s-41.27,30.24-47.24,54.09c-4.76,19,.44,39.66,11.2,56.06s26.62,28.9,43.7,38.53c18.47-31.37,51.42-46.39,81.84-66.39,63.48-41.73,102.81-117.78,100.18-193.7-.91-26.33-7.13-53.7-24.49-73.52S621.16,32.16,597.94,44.62Z" transform="translate(173.73 80.25)" opacity="0.55" fill="url(#linear-gradient-4)" style="mix-blend-mode:screen"/><path d="M517.72,266.43a149.76,149.76,0,0,1,85.34-60.68c8.63-2.27,18.7-3.48,25.71,2,6.5,5.13,8,14.27,8.38,22.54A143.1,143.1,0,0,1,594.82,337c-16.36,16-72.58,55.6-95.07,33.17C476.31,346.74,503.49,287.6,517.72,266.43Z" transform="translate(173.73 80.25)" opacity="0.55" fill="url(#linear-gradient-5)" style="mix-blend-mode:screen"/><path d="M655,110.17c-6.75,29.66-30.31,55.53-72,79.1-6.78,3.83-13.83,7.57-20.64,11.2-5.74,3.05-11.53,6.13-17.27,9.32,6-3.6,12-7.08,18-10.53,6.56-3.78,13.34-7.69,19.87-11.66,41.35-25.19,64.18-52.1,69.81-82.26l-.57-.11c-5.6,30-28.35,56.77-69.54,81.87-6.52,4-13.3,7.88-19.86,11.66-4.74,2.73-9.51,5.48-14.26,8.3,5.06-3.25,10.15-6.44,15.21-9.59,6.24-3.89,12.69-7.91,18.9-12,40.83-26.75,62.86-54.58,67.35-85.1l-.66-.09c-4.46,30.31-26.4,58-67,84.63-6.21,4.07-12.66,8.09-18.89,12-4.32,2.69-8.66,5.4-13,8.16,4.58-3.15,9.19-6.25,13.77-9.32,6-4,12.19-8.17,18.15-12.36,40.31-28.31,61.53-57.07,64.88-87.93l-.75-.09C643.11,126,622,154.59,581.87,182.77c-6,4.18-12.14,8.33-18.13,12.35q-5.4,3.62-10.83,7.3,5.8-4.24,11.61-8.4c5.77-4.15,11.74-8.44,17.48-12.75,39.78-29.88,60.19-59.57,62.4-90.78l-.84,0c-2.18,30.94-22.48,60.44-62.06,90.16-5.73,4.31-11.7,8.59-17.46,12.74q-4.35,3.12-8.7,6.28c3.15-2.45,6.31-4.88,9.45-7.3,5.59-4.29,11.36-8.72,16.9-13.16,39.26-31.46,58.86-62.08,59.93-93.62l-.92,0c-1.05,31.26-20.54,61.65-59.58,92.93-5.53,4.44-11.31,8.87-16.89,13.15l-6.34,4.89,7.1-5.83c5.42-4.44,11-9,16.4-13.61,38.73-33,57.52-64.58,57.45-96.46h-1c.07,31.56-18.6,62.86-57.1,95.69-5.36,4.58-11,9.16-16.39,13.6-10,8.21-20.2,16.54-29.7,25.46l-.72.64-.22.18-.41.31-1.75,1.15c-14.83,9-28.83,19.24-40.29,32.24a123.1,123.1,0,0,0-23.38,119.57l.47-.17a122.57,122.57,0,0,1,23.29-119.07,152.82,152.82,0,0,1,29.23-25.12,150.72,150.72,0,0,0-28.06,26.22,121.38,121.38,0,0,0-18.42,118.62l.55-.21a120.77,120.77,0,0,1,18.33-118,150,150,0,0,1,28.06-26.21,149.79,149.79,0,0,0-27,27.28A120.1,120.1,0,0,0,480.91,370.4l.61-.27a119.4,119.4,0,0,1,13.38-117,146,146,0,0,1,24.82-25.49,144.68,144.68,0,0,0-23.81,26.53c-23.2,34.1-26.53,79.91-8.48,116.71l.67-.33c-17.93-36.56-14.62-82.08,8.43-116a142.11,142.11,0,0,1,22.34-25.21,140.76,140.76,0,0,0-21.42,26.23c-21.5,34.67-22.87,80.11-3.5,115.76l.73-.4c-19.23-35.39-17.86-80.5,3.48-114.92a137.89,137.89,0,0,1,19.44-24.21A136.29,136.29,0,0,0,499,257.07c-19.83,35.21-19.25,80.27,1.47,114.8l.79-.47c-20.56-34.25-21.13-78.95-1.46-113.88a133.55,133.55,0,0,1,17.34-23.79,132.88,132.88,0,0,0-16.6,24.8c-18.17,35.71-15.64,80.4,6.46,113.84l.83-.55c-21.9-33.15-24.41-77.44-6.4-112.84,8.43-16.56,20.67-30.51,34.29-43.27,8.83-5.2,17.9-10,26.87-14.8,6.81-3.63,13.86-7.37,20.64-11.2,41.86-23.65,65.51-49.63,72.28-79.43Z" transform="translate(173.73 80.25)" fill="url(#linear-gradient-6)" style="mix-blend-mode:screen"/><g style="mix-blend-mode:screen"><path d="M243.91,435.59c-6-13.34-7-29-3.11-45.16a105.14,105.14,0,0,1,21.45-41.65c17-20.33,39.8-35.1,61.82-49.38q5.76-3.73,11.49-7.5c25.72-17,51.37-36.59,64.86-64.66,15.3-31.86,12.13-68.73,9.06-104.39-.3-3.54-.61-7.06-.89-10.57C405.66,76.12,405.74,30.77,432.66.77l.74.67c-26.66,29.71-26.73,74.8-23.82,110.76q.44,5.26.9,10.57c3.08,35.79,6.26,72.8-9.16,104.91-13.59,28.28-39.37,48-65.21,65.06q-5.72,3.78-11.5,7.5c-22,14.24-44.67,29-61.59,49.18s-32,55-18.19,85.76Z" transform="translate(173.73 80.25)" fill="url(#linear-gradient-7)"/></g><g style="mix-blend-mode:screen"><path d="M237.81,435.77c-10.22-25.57-2.31-58.94,20.15-85,18.37-21.33,43-36.4,66.76-51l6.2-3.81c14.29-8.8,30.48-18.77,44.06-31.36s23.69-28,29.07-44.26c8.23-24.94,7-50.62,4.39-74.66-.47-4.33-1-8.66-1.46-13-.87-7.57-1.77-15.39-2.49-23-4.68-49.73,2.39-84.18,22.25-108.43l.69.57c-19.69,24.05-26.7,58.3-22,107.77.72,7.63,1.61,15.44,2.48,23,.5,4.34,1,8.69,1.46,13,2.6,24.14,3.85,49.94-4.42,75-5.43,16.45-15.56,31.89-29.32,44.64s-29.88,22.65-44.2,31.47l-6.2,3.81c-23.73,14.54-48.27,29.57-66.55,50.79-22.24,25.83-30.09,58.83-20,84.09Z" transform="translate(173.73 80.25)" fill="url(#linear-gradient-8)"/></g><g style="mix-blend-mode:screen"><path d="M231.71,436c-10.84-30.87,4.23-63.23,21.95-83.22,19.46-21.93,45.5-37,70.68-51.57l4.45-2.57c16.85-9.74,34.29-19.82,48.71-33.17,15.53-14.37,26.26-32.83,30.2-52,4.87-23.69,1.68-47.44-2.33-71.72-1.73-10.38-3.67-22.62-5-34.67-4.87-45,2-80.49,20.42-105.35l.64.48c-18.3,24.69-25.11,60-20.27,104.79,1.3,12,3.24,24.25,5,34.62,4,24.35,7.22,48.18,2.32,72-4,19.31-14.78,37.92-30.43,52.41-14.5,13.41-32,23.51-48.86,33.27l-4.45,2.57c-25.13,14.54-51.11,29.57-70.48,51.42-17.57,19.81-32.52,51.87-21.79,82.41Z" transform="translate(173.73 80.25)" fill="url(#linear-gradient-9)"/></g><g style="mix-blend-mode:screen"><path d="M225.61,436.13c-4-13.25-3.6-28.16,1.19-43.11a105.1,105.1,0,0,1,22.57-38.31c20.25-22.16,47.88-37.26,72.25-50.59l4-2.18c18.9-10.3,38.44-21,54.4-35.7,17.81-16.45,29.23-38.22,31.33-59.72,2-21-2.63-41.08-7.58-62.4l-1.47-6.36a327.59,327.59,0,0,1-6-33.32c-3.51-28.57-3.14-69.5,18.6-102.27l.59.39c-21.63,32.59-22,73.35-18.5,101.79a326.42,326.42,0,0,0,6,33.25c.48,2.13,1,4.25,1.47,6.36,5,21.38,9.65,41.57,7.59,62.63-2.12,21.66-13.62,43.59-31.55,60.16-16,14.81-35.61,25.48-54.55,35.8l-4,2.19c-24.33,13.3-51.9,28.37-72.07,50.45-26.61,29.12-29.64,60.8-23.61,80.74Z" transform="translate(173.73 80.25)" fill="url(#linear-gradient-10)"/></g><g style="mix-blend-mode:screen"><path d="M219.52,436.31c-6.47-25.5,3.32-56,25.56-79.61,20.72-22,49.09-36.69,71.89-48.5l4.06-2.1c21.44-11.08,43.61-22.53,61.51-39.05C403.19,248,415,223.41,415,199.58c0-17.42-5.34-33.63-11-50.79-1.61-4.9-3.28-10-4.79-15a214.35,214.35,0,0,1-7-32c-5.11-36.76.85-72,16.79-99.19l.52.3C393.63,30,387.7,65.11,392.8,101.74a213.38,213.38,0,0,0,7,31.87c1.51,5,3.18,10.1,4.79,15,5.66,17.21,11,33.46,11,51,0,24-11.89,48.75-32.66,67.91-18,16.57-40.17,28.05-61.65,39.14l-4.06,2.1c-22.75,11.79-51.07,26.45-71.73,48.38-22.1,23.46-31.83,53.75-25.41,79.06Z" transform="translate(173.73 80.25)" fill="url(#linear-gradient-11)"/></g><g style="mix-blend-mode:screen"><path d="M213.42,436.5c-2.7-13.18-1.3-27.62,4.05-41.75a106.6,106.6,0,0,1,23.31-36.07c19.38-19.93,43.86-32.8,71.53-46.4l2.84-1.4c24.45-12,49.73-24.41,69.91-43,23.42-21.59,36-49.72,33.61-75.24-1.43-15.38-8-29.81-14.32-43.76-2.82-6.21-5.74-12.63-8.18-19.07-15.38-40.63-12.8-88,6.91-126.71l.45.22c-19.65,38.59-22.23,85.81-6.89,126.32,2.43,6.42,5.34,12.83,8.16,19,6.36,14,12.93,28.46,14.37,43.93,2.39,25.67-10.24,53.95-33.77,75.64-20.24,18.66-45.55,31.09-70,43.1l-2.83,1.39c-27.64,13.58-52.08,26.44-71.4,46.31a105.86,105.86,0,0,0-23.2,35.9c-5.31,14-6.71,28.38-4,41.47Z" transform="translate(173.73 80.25)" fill="url(#linear-gradient-12)"/></g></g><text transform="translate(301.85 271.29)" font-size="21" fill="#606060" font-family="Poppins-Bold, Poppins Bold" font-weight="700"><tspan letter-spacing="-0.04em">Y</tspan><tspan x="10.6" y="0">OGA HEALS</tspan><tspan x="113.08" y="0" letter-spacing="-0.04em"> </tspan><tspan x="116.67" y="0">THE SOUL.</tspan></text><text transform="translate(301.85 292.07)" font-size="12.05" fill="#606060" font-family="Poppins-Regular, Poppins Regular" letter-spacing="0.07em">LANDING <tspan x="56.91" y="0" letter-spacing="-0.01em">P</tspan><tspan x="63.15" y="0" letter-spacing="0.05em">A</tspan><tspan x="71.18" y="0">GE</tspan><tspan x="86.58" y="0" letter-spacing="0.03em"> </tspan><tspan x="89.49" y="0">TEMPL</tspan><tspan x="127.4" y="0" letter-spacing="-0.01em">A</tspan><tspan x="134.69" y="0">TE</tspan></text><text transform="translate(301.2 308.91)" font-size="6.49" fill="#606060" font-family="OpenSans-Light, OpenSans Light"><tspan letter-spacing="-0.01em">L</tspan><tspan x="2.97" y="0">o</tspan><tspan x="6.54" y="0" letter-spacing="-0.01em">r</tspan><tspan x="8.6" y="0">em ipsum dolor sit ame</tspan><tspan x="72.03" y="0" letter-spacing="0em">t</tspan><tspan x="74.15" y="0">, </tspan><tspan x="76.88" y="0" letter-spacing="-0.01em">c</tspan><tspan x="79.75" y="0">onse</tspan><tspan x="92.74" y="0" letter-spacing="0.01em">c</tspan><tspan x="95.73" y="0" letter-spacing="-0.01em">t</tspan><tspan x="97.84" y="0">etuer adipiscing eli</tspan><tspan x="149" y="0" letter-spacing="0em">t</tspan><tspan x="151.13" y="0">, </tspan><tspan x="0" y="7.79">sed diam nonum</tspan><tspan x="45.72" y="7.79" letter-spacing="-0.01em">m</tspan><tspan x="51.05" y="7.79">y nibh euismod tincidu</tspan><tspan x="113.16" y="7.79" letter-spacing="0em">n</tspan><tspan x="116.74" y="7.79">t ut </tspan><tspan x="127.36" y="7.79" letter-spacing="-0.01em">L</tspan><tspan x="130.34" y="7.79">o</tspan><tspan x="133.9" y="7.79" letter-spacing="-0.01em">r</tspan><tspan x="135.96" y="7.79">em </tspan><tspan x="0" y="15.58">ipsum dolor sit ame</tspan><tspan x="53.39" y="15.58" letter-spacing="0em">t</tspan><tspan x="55.52" y="15.58">, </tspan><tspan x="58.24" y="15.58" letter-spacing="-0.01em">c</tspan><tspan x="61.11" y="15.58">onse</tspan><tspan x="74.1" y="15.58" letter-spacing="0.01em">c</tspan><tspan x="77.09" y="15.58" letter-spacing="-0.01em">t</tspan><tspan x="79.2" y="15.58">etuer adipiscing eli</tspan><tspan x="130.36" y="15.58" letter-spacing="0em">t</tspan><tspan x="132.49" y="15.58">, sed </tspan></text><path d="M193.55,284.14H133.36a5.89,5.89,0,0,1-5.89-5.89v-7.68a5.89,5.89,0,0,1,5.89-5.88h60.19a5.89,5.89,0,0,1,5.89,5.88v7.68A5.89,5.89,0,0,1,193.55,284.14Z" transform="translate(173.73 80.25)" fill="url(#linear-gradient-13)"/><text transform="translate(306.5 358.32)" font-size="10.39" fill="#fff" font-family="OpenSans-Light, OpenSans Light" letter-spacing="0.05em">READ MORE</text><path d="M516.91,87.91H634.2a9.67,9.67,0,0,0,9.66-9.66h0a9.66,9.66,0,0,0-9.66-9.66H516.91a9.66,9.66,0,0,0-9.67,9.66h0A9.67,9.67,0,0,0,516.91,87.91Z" transform="translate(173.73 80.25)" fill="#606060" opacity="0.3"/><text transform="translate(692.91 161.16)" font-size="9" fill="#fff" font-family="OpenSans, OpenSans" letter-spacing="0.05em">SEA<tspan x="15.72" y="0" letter-spacing="0.05em">R</tspan><tspan x="21.04" y="0">CH</tspan></text><text transform="translate(297.85 161.16)" font-size="8.89" fill="#606060" font-family="OpenSans-Light, OpenSans Light" letter-spacing="0.05em">HOME</text><text transform="translate(344.82 161.16)" font-size="8.89" fill="#606060" font-family="OpenSans-Semibold, OpenSans Semibold" font-weight="700" letter-spacing="0.05em">P<tspan x="5.17" y="0" letter-spacing="0.05em">R</tspan><tspan x="10.42" y="0" letter-spacing="0.05em">OFILE</tspan></text><text transform="translate(403.18 161.16)" font-size="8.89" fill="#606060" font-family="OpenSans-Light, OpenSans Light" letter-spacing="0.05em">GALLE<tspan x="26.16" y="0" letter-spacing="0.04em">R</tspan><tspan x="31.28" y="0">Y</tspan></text><text transform="translate(464.16 161.16)" font-size="8.89" fill="#606060" font-family="OpenSans-Light, OpenSans Light" letter-spacing="0.03em">C<tspan x="5.41" y="0" letter-spacing="0.05em">ON</tspan><tspan x="18.27" y="0" letter-spacing="-0.03em">T</tspan><tspan x="22.46" y="0" letter-spacing="0.04em">A</tspan><tspan x="28.21" y="0" letter-spacing="0.08em">C</tspan><tspan x="34.06" y="0" letter-spacing="0.05em">T</tspan></text><rect x="344.82" y="165.66" width="37.99" height="0.93" fill="#606060"/></g><g id="DESIGNED_BY_FREEPIK" data-name="DESIGNED BY FREEPIK"><g id="_Groupe_" data-name="&lt;Groupe&gt;"><g id="_Groupe_2" data-name="&lt;Groupe&gt;"><path id="_Tracé_" data-name="&lt;Tracé&gt;" d="M385.1,513.12a7.3,7.3,0,0,0-1.1,1.45l-.47-.24a.61.61,0,0,0-.66-.47.6.6,0,0,0,.14,1.2.59.59,0,0,0,.19,0l.45.23a7.1,7.1,0,0,0-.54,1.75l.74.13a6.51,6.51,0,0,1,1.8-3.47Z" transform="translate(173.73 80.25)" fill="#f9fbfc"/><path id="_Tracé_2" data-name="&lt;Tracé&gt;" d="M390.59,510.81l-.51,0-.07-.62a.72.72,0,0,0-.53-1.28.73.73,0,0,0-.63.8.71.71,0,0,0,.41.56l.07.63a7.57,7.57,0,0,0-2.06.64l.33.69a6.82,6.82,0,0,1,3-.68,7.37,7.37,0,0,1,1.48.16l.16-.74A7.56,7.56,0,0,0,390.59,510.81Z" transform="translate(173.73 80.25)" fill="#f9fbfc"/><path id="_Tracé_3" data-name="&lt;Tracé&gt;" d="M397.19,513.36a.6.6,0,0,0,.53-.67.6.6,0,0,0-1.2.08l-.42.37a7.41,7.41,0,0,0-1.41-1.14l-.4.64a6.7,6.7,0,0,1,2.56,2.92l.69-.31a7.14,7.14,0,0,0-.94-1.54l.4-.36A.41.41,0,0,0,397.19,513.36Z" transform="translate(173.73 80.25)" fill="#f9fbfc"/><path id="_Tracé_4" data-name="&lt;Tracé&gt;" d="M390,521c-.38,0-.77,0-1.15,0a15.87,15.87,0,0,1-2.48-.18,9.19,9.19,0,0,1-1.27-.29,6.2,6.2,0,0,0,11.34-1.38,10,10,0,0,1-2.46,1.12A16.69,16.69,0,0,1,390,521Z" transform="translate(173.73 80.25)" fill="#f9fbfc"/><path id="_Tracé_transparent_" data-name="&lt;Tracé transparent&gt;" d="M390.59,512.33a5.93,5.93,0,0,0-5.94,7.21c.67.48,2.7.89,5.35.73a11.55,11.55,0,0,0,6.67-2.16,5.44,5.44,0,0,0-.05-.58A6,6,0,0,0,390.59,512.33Zm-2.16,6.52a1.85,1.85,0,1,1,1.85-1.85A1.85,1.85,0,0,1,388.43,518.85Zm4.74-.91a1.36,1.36,0,1,1,1.36-1.36A1.36,1.36,0,0,1,393.17,517.94Z" transform="translate(173.73 80.25)" fill="#f9fbfc"/></g><path id="_Tracé_transparent_2" data-name="&lt;Tracé transparent&gt;" d="M406.6,514.2a2.82,2.82,0,0,0-1.39-.24c-.55.07-.84.34-.84,1v.86h2.23v1.72h-2.23V523h-1.93v-5.45H401.1v-1.72h1.34v-.89a2.46,2.46,0,0,1,2.57-2.78,3.91,3.91,0,0,1,1.59.31Z" transform="translate(173.73 80.25)" fill="#f9fbfc"/><path id="_Tracé_transparent_3" data-name="&lt;Tracé transparent&gt;" d="M411.3,517.53a3.27,3.27,0,0,0-.53,0,1.44,1.44,0,0,0-1.51,1.62V523h-1.93v-7.17h1.87v.79a2.25,2.25,0,0,1,2-1,1.8,1.8,0,0,1,1.1.34Z" transform="translate(173.73 80.25)" fill="#f9fbfc"/><path id="_Tracé_transparent_4" data-name="&lt;Tracé transparent&gt;" d="M419,519.41a6,6,0,0,1,0,.65h-5.09a1.74,1.74,0,0,0,1.85,1.49,2.88,2.88,0,0,0,1.81-.69l1.13,1.24a4.33,4.33,0,0,1-3.05,1.09,3.78,3.78,0,0,1-.1-7.55A3.47,3.47,0,0,1,419,519.41Zm-5.12-.67H417a1.6,1.6,0,0,0-3.18,0Z" transform="translate(173.73 80.25)" fill="#f9fbfc"/><path id="_Tracé_transparent_5" data-name="&lt;Tracé transparent&gt;" d="M426.62,519.41a6,6,0,0,1,0,.65H421.5a1.72,1.72,0,0,0,1.84,1.49,2.88,2.88,0,0,0,1.81-.69l1.14,1.24a4.37,4.37,0,0,1-3.06,1.09,3.78,3.78,0,0,1-.1-7.55A3.47,3.47,0,0,1,426.62,519.41Zm-5.12-.67h3.18a1.54,1.54,0,0,0-1.56-1.43A1.56,1.56,0,0,0,421.5,518.74Z" transform="translate(173.73 80.25)" fill="#f9fbfc"/><path id="_Tracé_transparent_6" data-name="&lt;Tracé transparent&gt;" d="M435,519.42a3.55,3.55,0,0,1-3.47,3.77,2.65,2.65,0,0,1-2.11-.93V526h-1.92V515.83h1.89v.79a2.6,2.6,0,0,1,2.14-1A3.55,3.55,0,0,1,435,519.42Zm-5.67,0a1.85,1.85,0,1,0,1.84-2A1.83,1.83,0,0,0,429.29,519.42Z" transform="translate(173.73 80.25)" fill="#f9fbfc"/><path id="_Tracé_transparent_7" data-name="&lt;Tracé transparent&gt;" d="M438.07,513.49a1.24,1.24,0,1,1-1.24-1.25A1.22,1.22,0,0,1,438.07,513.49Zm-.26,9.51h-1.93v-7.17h1.93Z" transform="translate(173.73 80.25)" fill="#f9fbfc"/><path id="_Tracé_transparent_8" data-name="&lt;Tracé transparent&gt;" d="M441,518.39l2.7-2.56h2.37l-3.48,3.38,3.5,3.79h-2.37L441,520.1V523H439.1V512.35H441Z" transform="translate(173.73 80.25)" fill="#f9fbfc"/></g><path d="M309.41,522.94v-1.05a3,3,0,0,1-2.39,1.23c-1.84,0-3.14-1.41-3.14-3.71s1.28-3.72,3.14-3.72a3,3,0,0,1,2.39,1.24v-3.76h1.1v9.77Zm0-1.92v-3.21a2.65,2.65,0,0,0-2.12-1.14c-1.42,0-2.27,1.17-2.27,2.74s.85,2.72,2.27,2.72A2.6,2.6,0,0,0,309.41,521Z" transform="translate(173.73 80.25)" fill="#f9fbfc"/><path d="M311.93,519.4a3.54,3.54,0,0,1,3.49-3.71c2.14,0,3.4,1.67,3.4,3.79v.28h-5.73a2.5,2.5,0,0,0,2.55,2.45,3.07,3.07,0,0,0,2.18-.9l.53.72a3.84,3.84,0,0,1-2.81,1.09A3.51,3.51,0,0,1,311.93,519.4Zm3.47-2.8a2.35,2.35,0,0,0-2.31,2.36h4.64A2.29,2.29,0,0,0,315.4,516.6Z" transform="translate(173.73 80.25)" fill="#f9fbfc"/><path d="M319.61,522l.57-.79a3.21,3.21,0,0,0,2.33,1c1.08,0,1.67-.51,1.67-1.21,0-1.72-4.38-.66-4.38-3.28,0-1.1.95-2,2.63-2a3.6,3.6,0,0,1,2.63,1l-.52.77a2.73,2.73,0,0,0-2.11-.9c-1,0-1.56.49-1.56,1.12,0,1.55,4.38.52,4.38,3.28,0,1.18-1,2.14-2.79,2.14A3.76,3.76,0,0,1,319.61,522Z" transform="translate(173.73 80.25)" fill="#f9fbfc"/><path d="M326.48,514.12a.74.74,0,0,1,.73-.74.75.75,0,0,1,.75.74.74.74,0,0,1-.75.73A.73.73,0,0,1,326.48,514.12Zm.19,8.82v-7.07h1.1v7.07Z" transform="translate(173.73 80.25)" fill="#f9fbfc"/><path d="M329.58,524.76l.56-.82a2.7,2.7,0,0,0,2.3,1,2,2,0,0,0,2.27-2.12v-1a3,3,0,0,1-2.37,1.26c-1.85,0-3.15-1.38-3.15-3.66s1.29-3.68,3.15-3.68a2.94,2.94,0,0,1,2.37,1.24v-1.06h1.1v6.87c0,2.34-1.64,3.07-3.37,3.07A3.63,3.63,0,0,1,329.58,524.76Zm5.13-3.86v-3.09a2.62,2.62,0,0,0-2.11-1.14c-1.42,0-2.27,1.13-2.27,2.7s.85,2.69,2.27,2.69A2.61,2.61,0,0,0,334.71,520.9Z" transform="translate(173.73 80.25)" fill="#f9fbfc"/><path d="M342.41,522.94v-4.63c0-1.24-.63-1.64-1.58-1.64a2.73,2.73,0,0,0-2.09,1.1v5.17h-1.1v-7.07h1.1v1a3.47,3.47,0,0,1,2.52-1.2,2,2,0,0,1,2.25,2.28v5Z" transform="translate(173.73 80.25)" fill="#f9fbfc"/><path d="M344.93,519.4a3.54,3.54,0,0,1,3.49-3.71c2.14,0,3.4,1.67,3.4,3.79v.28h-5.73a2.5,2.5,0,0,0,2.55,2.45,3.07,3.07,0,0,0,2.18-.9l.53.72a3.82,3.82,0,0,1-2.81,1.09A3.51,3.51,0,0,1,344.93,519.4Zm3.47-2.8a2.36,2.36,0,0,0-2.31,2.36h4.64A2.28,2.28,0,0,0,348.4,516.6Z" transform="translate(173.73 80.25)" fill="#f9fbfc"/><path d="M358.35,522.94v-1.05a3,3,0,0,1-2.39,1.23c-1.84,0-3.15-1.41-3.15-3.71s1.29-3.72,3.15-3.72a3,3,0,0,1,2.39,1.24v-3.76h1.1v9.77Zm0-1.92v-3.21a2.68,2.68,0,0,0-2.12-1.14c-1.42,0-2.27,1.17-2.27,2.74s.85,2.72,2.27,2.72A2.63,2.63,0,0,0,358.35,521Z" transform="translate(173.73 80.25)" fill="#f9fbfc"/><path d="M364.69,522.94v-9.77h1.1v3.76a3,3,0,0,1,2.39-1.24c1.84,0,3.15,1.46,3.15,3.72s-1.31,3.71-3.15,3.71a3,3,0,0,1-2.39-1.23v1.05Zm3.21-.81c1.44,0,2.29-1.15,2.29-2.72s-.85-2.74-2.29-2.74a2.65,2.65,0,0,0-2.11,1.14V521A2.59,2.59,0,0,0,367.9,522.13Z" transform="translate(173.73 80.25)" fill="#f9fbfc"/><path d="M372.53,524.71a1.53,1.53,0,0,0,.6.12,1,1,0,0,0,1.05-.75l.47-1.07-3-7.14h1.19l2.36,5.8,2.34-5.8h1.2l-3.54,8.51a2.1,2.1,0,0,1-2.08,1.43,3.52,3.52,0,0,1-.81-.1Z" transform="translate(173.73 80.25)" fill="#f9fbfc"/></g></g></svg>